<svg id="Group_1" data-name="Group 1" xmlns="http://www.w3.org/2000/svg" width="1920" height="1080" viewBox="0 0 1920 1080">
  <rect id="Rectangle_1" data-name="Rectangle 1" width="1920" height="1080" fill="#fff"/>
  <g id="Path_1" data-name="Path 1" fill="#5d0078">
    <path d="M 1919.5 808.5 L 0.5 808.5 L 0.5 0.7041776776313782 C 5.213513374328613 2.34372091293335 34.67181777954102 12.49458312988281 82.35547637939453 26.88500022888184 C 112.8419036865234 36.08523941040039 144.7040405273438 45.19309616088867 177.0569000244141 53.95523834228516 C 217.4973754882813 64.90785980224609 258.8230895996094 75.34833526611328 299.8857116699219 84.98666381835938 C 404.4097595214844 109.5209503173828 507.8826293945313 129.0692901611328 607.4302368164063 143.0888061523438 C 636.2061767578125 147.1414337158203 665.0325927734375 150.779052734375 693.1088256835938 153.9007110595703 C 722.662841796875 157.1866607666016 752.1997680664063 159.9914245605469 780.8985595703125 162.2366638183594 C 810.9976196289063 164.5916595458984 841.0081176757813 166.3966674804688 870.096435546875 167.6016693115234 C 900.5073852539063 168.8611907958984 930.7554931640625 169.5 960 169.5 C 989.2445068359375 169.5 1019.492614746094 168.8611907958984 1049.903564453125 167.6016693115234 C 1078.991943359375 166.3966674804688 1109.00244140625 164.5916595458984 1139.101440429688 162.2366638183594 C 1167.80029296875 159.9914245605469 1197.337158203125 157.1866607666016 1226.891235351563 153.9007110595703 C 1254.967407226563 150.779052734375 1283.793823242188 147.1414337158203 1312.569702148438 143.0888061523438 C 1412.117431640625 129.0692901611328 1515.590209960938 109.5209503173828 1620.1142578125 84.98666381835938 C 1661.176879882813 75.34833526611328 1702.502563476563 64.90785980224609 1742.943115234375 53.95523834228516 C 1775.2958984375 45.19309616088867 1807.158081054688 36.08523941040039 1837.64453125 26.88500022888184 C 1885.328125 12.49458312988281 1914.786499023438 2.34372091293335 1919.5 0.7041776776313782 L 1919.5 808.5 Z" stroke="none"/>
    <path d="M 1 1.406982421875 L 1 808 L 1919 808 L 1919 1.406982421875 C 1912.619873046875 3.61602783203125 1883.619140625 13.53265380859375 1837.788818359375 27.36358642578125 C 1807.2978515625 36.56524658203125 1775.43115234375 45.67449951171875 1743.073852539063 54.4378662109375 C 1702.627807617188 65.39190673828125 1661.296630859375 75.83380126953125 1620.228515625 85.47357177734375 C 1515.689697265625 110.0111694335938 1412.201904296875 129.5621337890625 1312.639526367188 143.5840454101563 C 1283.85888671875 147.6373901367188 1255.02734375 151.2754516601563 1226.946411132813 154.3976440429688 C 1197.386962890625 157.6842651367188 1167.8447265625 160.4892578125 1139.140502929688 162.7352294921875 C 1109.03515625 165.0906982421875 1079.0185546875 166.8959350585938 1049.92431640625 168.1011962890625 C 1019.506408691406 169.3612060546875 989.2514038085938 170 960 170 C 930.7485961914063 170 900.4935913085938 169.3612060546875 870.07568359375 168.1011962890625 C 840.9814453125 166.8959350585938 810.9647216796875 165.0906982421875 780.8594970703125 162.7352294921875 C 752.1552734375 160.4892578125 722.613037109375 157.6842651367188 693.0535888671875 154.3976440429688 C 664.97265625 151.2754516601563 636.1412353515625 147.6373901367188 607.3604736328125 143.5840454101563 C 507.798095703125 129.5621337890625 404.3101806640625 110.0111694335938 299.771484375 85.47357177734375 C 258.703369140625 75.83380126953125 217.3721923828125 65.39190673828125 176.9261474609375 54.4378662109375 C 144.56884765625 45.67449951171875 112.7021484375 36.56524658203125 82.211181640625 27.36358642578125 C 36.380859375 13.53265380859375 7.380126953125 3.61602783203125 1 1.406982421875 M 0 0 C 0 0 480 169 960 169 C 1440 169 1920 0 1920 0 L 1920 809 L 0 809 L 0 0 Z" stroke="none" fill="#707070"/>
  </g>
</svg>
